<svg xmlns="http://www.w3.org/2000/svg" viewBox="0 0 609 143">
	<!-- Celtic knot pattern - Public Domain from publicdomainvectors.org -->
	<g fill="#8a9577">
		<path d="m 71.27,47.98 -23.31,23.27 -7.76,7.76 c -2.64,2.64 -4.98,5.49 -7.03,8.53 -6.3,9.3 -9.77,20.28 -9.88,31.66 11.31,-0.11 22.33,-3.55 31.7,-9.84 l 8.5,8.49 c 2.48,2.49 5.12,4.75 7.9,6.73 -17.02,13.14 -38.65,18.85 -59.96,15.81 l -8.16,-1.17 -1.17,-8.16 c -3.04,-21.37 2.75,-42.89 15.78,-59.77 2.01,-2.74 4.32,-5.34 6.77,-7.8 l 8.53,-8.52 21.82,-21.82 c 3.04,2.05 5.89,4.39 8.49,7.03 z" />
		<path d="m 179.25,50.28 c 2.96,20.68 -2.35,41.73 -14.75,58.57 -2.78,-1.91 -5.38,-4.1 -7.8,-6.52 l -8.49,-8.52 c 6.33,-9.38 9.74,-20.39 9.85,-31.67 -11.39,0.11 -22.37,3.59 -31.66,9.85 -3.04,2.08 -5.89,4.43 -8.53,7.03 l -7.76,7.76 -22.33,22.33 c -3.15,-1.87 -6.08,-4.1 -8.75,-6.78 l -7.76,-7.76 23.32,-23.28 7.76,-7.79 c 2.63,-2.64 5.41,-5.05 8.34,-7.21 16.8,-12.74 38.1,-18.38 59.23,-15.34 l 8.15,1.17 z" />
		<path d="m 141.18,117.85 c 2.42,2.42 4.98,4.65 7.65,6.73 -23.39,16.99 -54.64,16.59 -77.44,0 -2.79,-1.97 -5.42,-4.24 -7.91,-6.73 l -8.49,-8.49 -21.82,-21.81 c 2.05,-3.04 4.39,-5.9 7.03,-8.53 l 7.76,-7.76 23.32,23.31 7.76,7.76 c 2.66,2.67 5.59,4.91 8.74,6.78 13.51,7.97 30.64,8.27 44.66,0 z" />
		<path d="m 71.27,47.98 -7.79,-7.8 c -2.6,-2.64 -5.46,-4.98 -8.5,-7.03 -9.3,-6.26 -20.31,-9.73 -31.7,-9.88 0.11,11.31 3.55,22.33 9.88,31.7 l -8.53,8.52 c -2.45,2.46 -4.76,5.06 -6.77,7.8 l -0.04,-0.04 c -13.1,-17.02 -18.74,-38.57 -15.74,-59.84 l 1.17,-8.13 8.16,-1.17 c 21.38,-3.08 42.9,2.71 59.81,15.74 2.71,2.01 5.35,4.32 7.8,6.77 l 8.49,8.53 h 0.04 l 23.09,23.1 0.04,0.04 c -2.93,2.16 -5.71,4.57 -8.34,7.21 l -7.76,7.79 -0.04,-0.03 z" />
		<path d="m 296.56,117.85 c 2.49,2.49 5.13,4.76 7.91,6.73 -13.95,10.77 -31.08,16.62 -48.68,16.62 h -58.28 c -17.71,0 -34.81,-5.89 -48.68,-16.62 -2.67,-2.08 -5.23,-4.31 -7.65,-6.73 l -8.75,-8.75 -22.33,-22.33 7.76,-7.76 c 2.64,-2.59 5.49,-4.94 8.53,-7.02 l 21.81,21.81 8.5,8.53 c 2.41,2.41 5.01,4.61 7.79,6.51 9.63,6.7 21.12,10.36 33.02,10.36 h 58.27 c 11.5,0 22.73,-3.4 32.25,-9.84 z" />
		<path d="m 412.33,50.28 c 2.97,20.68 -2.34,41.7 -14.78,58.53 -2.75,-1.9 -5.35,-4.06 -7.76,-6.48 l -8.49,-8.53 c 6.3,-9.37 9.73,-20.39 9.84,-31.66 -11.38,0.11 -22.36,3.59 -31.66,9.85 -3.03,2.08 -5.89,4.43 -8.52,7.02 l -7.76,7.76 -22.34,22.33 c -3.14,-1.87 -6.07,-4.1 -8.74,-6.77 l -7.76,-7.76 23.28,-23.32 7.76,-7.76 c 2.63,-2.63 5.41,-5.05 8.34,-7.21 16.84,-12.73 38.14,-18.37 59.26,-15.33 l 8.16,1.17 z" />
		<path d="m 374.27,117.85 c 2.41,2.42 4.97,4.65 7.65,6.73 -23.39,16.99 -54.69,16.59 -77.45,0 -2.78,-1.97 -5.42,-4.24 -7.91,-6.73 l -8.53,-8.49 -23.09,-23.1 -0.04,-0.03 c 2.93,-2.16 5.71,-4.58 8.34,-7.22 l 7.8,-7.76 23.28,23.32 h 0.03 l 7.76,7.76 c 2.68,2.67 5.6,4.9 8.75,6.77 13.51,7.98 30.64,8.27 44.62,0 z" />
		<path d="m 265.52,55.74 -7.79,7.75 c -2.64,2.6 -5.49,4.95 -8.53,7 l -21.82,-21.78 -8.49,-8.53 c -2.41,-2.42 -5.01,-4.61 -7.79,-6.52 -9.63,-6.73 -21.13,-10.39 -33.02,-10.39 h -58.27 c -11.5,0 -22.7,3.44 -32.25,9.88 h -0.04 l -8.49,-8.53 c -2.45,-2.45 -5.09,-4.76 -7.79,-6.77 l 0.03,-0.04 C 85.18,7.09 102.24,1.3 119.81,1.3 h 58.27 c 17.68,0 34.81,5.9 48.64,16.62 2.71,2.01 5.27,4.28 7.69,6.7 l 8.75,8.78 h 0.04 l 22.29,22.29 z" />
	</g>
	<g fill="#b8c69e">
		<path d="m 606.55,11.41 c 3.07,21.42 -2.71,42.97 -15.75,59.85 -2.04,2.71 -4.31,5.31 -6.77,7.76 l -8.52,8.53 -21.82,21.81 c -3.04,-2.05 -5.89,-4.39 -8.53,-7.03 l -7.76,-7.76 23.32,-23.31 7.76,-7.76 c 2.63,-2.64 4.98,-5.49 7.03,-8.53 6.29,-9.3 9.73,-20.31 9.88,-31.7 -11.31,0.15 -22.33,3.55 -31.7,9.89 l -8.53,-8.53 c -2.49,-2.49 -5.12,-4.73 -7.87,-6.74 17.02,-13.14 38.66,-18.82 59.92,-15.78 l 8.16,1.17 z" />
		<path d="m 590.85,71.25 c 13.06,17.02 18.73,38.58 15.7,59.81 l -1.17,8.16 -8.17,1.17 c -21.37,3.08 -42.89,-2.71 -59.77,-15.74 -2.74,-2.05 -5.34,-4.35 -7.79,-6.8 l -8.53,-8.49 -23.1,-23.1 -0.04,-0.04 c 2.93,-2.16 5.71,-4.57 8.35,-7.21 l 7.76,-7.76 23.31,23.32 7.76,7.76 c 2.64,2.63 5.49,4.97 8.53,7.02 9.3,6.26 20.31,9.74 31.7,9.85 -0.15,-11.28 -3.55,-22.29 -9.88,-31.66 l 8.52,-8.53 c 2.46,-2.45 4.73,-5.05 6.77,-7.76 z" />
		<path d="m 553.69,33.15 21.82,21.82 c -2.05,3.03 -4.39,5.89 -7.03,8.52 l -7.76,7.76 -23.31,-23.31 -7.76,-7.76 c -2.67,-2.67 -5.6,-4.94 -8.75,-6.77 -13.51,-7.99 -30.6,-8.28 -44.62,0 h -0.04 l -8.75,-8.79 c -2.41,-2.41 -4.97,-4.68 -7.69,-6.7 l 0.04,-0.03 c 23.39,-16.99 54.69,-16.55 77.45,0 2.75,2.01 5.39,4.24 7.87,6.73 z" />
		<path d="m 397.55,108.81 c 9.62,6.73 21.15,10.39 33.05,10.39 h 58.27 c 11.49,0 22.73,-3.4 32.25,-9.84 l 8.53,8.49 c 2.45,2.45 5.05,4.76 7.79,6.81 l -0.03,0.03 c -13.91,10.69 -31.01,16.51 -48.54,16.51 h -58.27 c -17.72,0 -34.81,-5.89 -48.68,-16.62 -2.67,-2.08 -5.24,-4.31 -7.65,-6.73 l -8.79,-8.75 -22.29,-22.33 7.76,-7.76 c 2.64,-2.59 5.49,-4.94 8.53,-7.02 l 21.82,21.81 8.48,8.53 c 2.42,2.42 5.02,4.58 7.77,6.48 z" />
		<path d="m 537.41,47.94 -23.32,23.31 -7.76,7.76 c -2.64,2.64 -5.41,5.06 -8.34,7.22 -16.8,12.73 -38.1,18.37 -59.26,15.33 l -8.13,-1.17 -1.17,-8.16 c -2.96,-20.72 2.35,-41.73 14.75,-58.57 2.75,1.94 5.35,4.1 7.76,6.52 l 8.53,8.53 c -6.33,9.33 -9.77,20.35 -9.88,31.66 11.38,-0.11 22.4,-3.59 31.7,-9.88 3.03,-2.06 5.89,-4.4 8.52,-7 l 7.8,-7.75 22.29,-22.33 c 3.15,1.83 6.08,4.09 8.75,6.77 z" />
		<path d="m 498.61,55.74 -7.8,7.75 c -2.64,2.6 -5.49,4.95 -8.53,7 l -21.81,-21.78 -8.53,-8.53 c -2.42,-2.42 -5.02,-4.58 -7.76,-6.52 -9.59,-6.73 -21.12,-10.39 -33.02,-10.39 h -58.27 c -11.49,0 -22.73,3.44 -32.28,9.88 l -8.49,-8.53 c -2.49,-2.49 -5.13,-4.76 -7.91,-6.73 13.95,-10.76 31.08,-16.58 48.68,-16.58 h 58.27 c 17.68,0 34.82,5.89 48.65,16.61 2.71,2.02 5.27,4.29 7.69,6.7 l 8.75,8.79 h 0.03 l 22.3,22.29 z" />
		<path d="m 343.7,56.25 0.04,0.04 c -2.93,2.16 -5.71,4.57 -8.34,7.21 l -7.76,7.76 -23.32,-23.32 -7.76,-7.76 c -2.67,-2.67 -5.6,-4.94 -8.74,-6.77 -13.51,-7.98 -30.6,-8.27 -44.62,0 h -0.04 l -8.75,-8.78 c -2.41,-2.42 -4.97,-4.69 -7.69,-6.7 l 0.04,-0.04 c 23.39,-16.95 54.65,-16.55 77.45,0 2.78,1.98 5.42,4.25 7.91,6.74 l 8.49,8.53 z" />
		<path d="m 304.32,47.94 -23.28,23.31 -7.79,7.76 c -2.64,2.64 -5.42,5.06 -8.35,7.22 -16.8,12.73 -38.1,18.37 -59.22,15.33 l -8.16,-1.17 -1.17,-8.16 c -2.97,-20.72 2.34,-41.73 14.75,-58.57 2.78,1.91 5.38,4.1 7.79,6.52 l 8.49,8.53 c -6.33,9.33 -9.73,20.35 -9.84,31.66 11.38,-0.11 22.36,-3.59 31.66,-9.88 3.04,-2.06 5.89,-4.4 8.53,-7 l 7.79,-7.75 22.3,-22.33 c 3.14,1.83 6.07,4.09 8.74,6.77 z" />
	</g>
</svg>
